<svg xmlns="http://www.w3.org/2000/svg" xml:space="preserve" width="2048" height="2048" style="shape-rendering:geometricPrecision;text-rendering:geometricPrecision;image-rendering:optimizeQuality;fill-rule:evenodd;clip-rule:evenodd"><defs><style>.fil0{fill:#74acdf}.fil5{fill:#843511}.fil4{fill:#85340a}.fil2{fill:#f6b40e}.fil3{fill:#85340a;fill-rule:nonzero}</style></defs><g id="Layer_x0020_1"><path class="fil0" d="M255.999 562.744h1536v307.504h-1536z"/><path style="fill:#eee" d="M255.999 870.248h1536v307.504h-1536z"/><path class="fil0" d="M255.999 1177.75h1536v307.504h-1536z"/><path class="fil2" d="m1018.17 1026.42 52.521 114.437s.901 2.191 2.363 1.586c1.46-.605.558-2.785.558-2.785l-43.78-118.07zm-1.263 44.528c-.639 17.404 10.07 26.977 8.672 42.517-1.395 15.539 7.14 24.328 9.115 30.377 1.983 6.038-2.137 9.652-.363 10.516 1.778.859 5.67-3.91 4.4-12.509-1.27-8.59-7.787-11.142-6.254-30.124 1.532-18.984-7.772-23.41-5.509-40.724l-10.06-.053z"/><path class="fil3" d="m1019.1 1025.99 18.487 40.28.03-.238 2.027.264a40.327 40.327 0 0 0-.32 3.76l32.297 70.371.02.045c.002.002.505 1.235 1.024 1.02.507-.209 0-1.456-.002-1.458l-.012-.024-43.78-118.07 1.923-.713 43.78 118.07h-.002c.113.29 1.162 3.14-1.13 4.088-2.279.942-3.564-1.843-3.69-2.129l-.003-.007-.004-.01-30.205-65.81c.457 3.793 1.505 6.985 2.576 10.254 1.873 5.71 3.822 11.649 3.045 21.286-.99 12.275 1.452 17.515 3.579 22.078 1.149 2.469 2.214 4.753 2.668 7.817.67 4.542-.045 8.105-1.161 10.417-.458.95-.996 1.709-1.542 2.251-.624.622-1.298.995-1.93 1.088-.43.064-.846.006-1.227-.177-1.552-.755-1.155-1.934-.538-3.743.57-1.677 1.423-4.183.373-7.379-.5-1.536-1.493-3.333-2.633-5.4-3.212-5.822-7.572-13.726-6.526-25.381.679-7.56-1.62-13.743-4.008-20.16-2.452-6.59-4.994-13.423-4.668-22.306l2.044.073c-.31 8.48 2.158 15.118 4.54 21.52 2.468 6.637 4.848 13.034 4.128 21.05-.99 11.031 3.2 18.626 6.286 24.22 1.187 2.154 2.22 4.023 2.784 5.751 1.26 3.841.277 6.733-.38 8.668-.264.775-.583 1.21-.511 1.244l.032-.007h.003c.206-.03.48-.204.788-.511.391-.389.788-.957 1.142-1.692.968-2.003 1.58-5.143.977-9.229-.407-2.76-1.415-4.918-2.5-7.25-2.234-4.789-4.798-10.292-3.763-23.103.745-9.236-1.138-14.976-2.948-20.492-1.564-4.768-3.076-9.377-2.907-15.85l-20.022-43.626 1.859-.85z"/><path class="fil2" d="m1017.68 1024 4.74 125.831s-.007 2.362 1.578 2.372c1.578 0 1.578-2.372 1.578-2.372l4.73-125.831zm-18.196 40.66c-7.257 15.827-1.03 28.772-8.267 42.59-7.237 13.827-2.713 25.212-3.2 31.558-.478 6.345-5.669 8.104-4.363 9.58 1.318 1.47 6.733-1.45 8.852-9.879 2.119-8.416-2.93-13.277 5.75-30.222 8.68-16.954 1.776-24.599 10.5-39.724l-9.272-3.902z"/><path class="fil3" d="m1019.52 1023.94 1.678 44.52 1.784 1.026a39.61 39.61 0 0 0-1.628 3.126l2.641 70.07 4.466-118.742 3.69.13-4.73 125.765h.005c0 .012-.004 4.214-3.43 4.217h-.007c-3.446-.02-3.425-4.204-3.425-4.216h.006l-2.422-64.286a181.85 181.85 0 0 0-.196 2.439c-.461 6.065-.942 12.378-5.429 21.142-5.51 10.757-5.265 16.42-5.051 21.35.12 2.791.232 5.374-.55 8.482-1.16 4.618-3.277 7.775-5.292 9.58-.864.775-1.736 1.326-2.532 1.655-.988.407-1.934.504-2.722.307a2.879 2.879 0 0 1-1.473-.882l-.007-.008c-1.625-1.836-.62-2.983.935-4.75l.003.003c1.095-1.247 2.73-3.11 2.962-6.192.118-1.544-.106-3.542-.365-5.84-.753-6.715-1.777-15.833 3.774-26.436 3.432-6.554 3.672-13.053 3.919-19.795.26-7.107.531-14.476 4.304-22.706l3.357 1.533c-3.466 7.562-3.724 14.555-3.971 21.303-.262 7.168-.519 14.08-4.337 21.373-5.022 9.594-4.07 18.077-3.37 24.322.279 2.485.522 4.647.38 6.52a12.853 12.853 0 0 1-.639 3.187c.576-1.146 1.09-2.498 1.486-4.072.656-2.608.555-4.923.448-7.426-.234-5.38-.501-11.56 5.455-23.188 4.138-8.082 4.591-14.025 5.025-19.736.381-5.03.75-9.89 3.37-15.841l-1.802-47.804 3.69-.13zm4.48 126.21c-.076.111-.111.21 0 .211.114-.002.078-.1 0-.211z"/><path class="fil2" d="m1018.17 1021.58-43.78 118.061s-.912 2.19.55 2.794c1.46.605 2.361-1.585 2.361-1.585l52.531-114.438zm-32.376 30.592c-12.754 11.862-11.953 26.193-23.932 36.198-11.978 9.996-12.16 22.248-15.035 27.926-2.875 5.668-8.346 5.316-7.699 7.174.651 1.866 6.781 1.244 11.962-5.732 5.175-6.97 2.37-13.386 16.876-25.726 14.503-12.34 11.059-22.037 24.905-32.684l-7.077-7.156z"/><path class="fil3" d="m1019.91 1022.23-15.494 41.783 1.248 1.615a39.813 39.813 0 0 0-2.682 2.25l-24.34 65.643 49.516-107.87 3.356 1.534-52.494 114.357c-.003.01-1.62 3.91-4.778 2.608h-.008c-2.98-1.235-1.743-4.705-1.573-5.143l-.003-.001 22.397-60.4c-.38.728-.751 1.46-1.123 2.195-2.746 5.426-5.606 11.073-13.106 17.453-9.208 7.833-11.148 13.161-12.835 17.798-.953 2.621-1.836 5.046-3.751 7.624-2.852 3.841-6.027 5.947-8.58 6.837-1.084.376-2.094.546-2.952.545-1.068-.003-1.976-.275-2.628-.76a2.888 2.888 0 0 1-1.028-1.382l-.002.001c-.806-2.31.563-2.992 2.679-4.031l-.002-.003c1.492-.733 3.722-1.83 5.118-4.581.705-1.395 1.26-3.313 1.895-5.518 1.874-6.499 4.42-15.325 13.604-22.988l-.003-.003c5.69-4.754 8.398-10.668 11.205-16.8 2.961-6.47 6.032-13.178 12.655-19.337l2.518 2.707c-6.098 5.67-9.01 12.03-11.816 18.163-2.99 6.531-5.873 12.828-12.188 18.104h-.007c-8.317 6.939-10.682 15.133-12.423 21.167-.695 2.412-1.3 4.51-2.14 6.17a12.883 12.883 0 0 1-1.847 2.738c.986-.842 1.995-1.907 2.975-3.228 1.593-2.146 2.388-4.327 3.246-6.684 1.841-5.06 3.958-10.874 13.919-19.347 6.914-5.882 9.608-11.2 12.194-16.31 2.28-4.504 4.485-8.86 9.18-13.357l16.626-44.836 3.472 1.287zm-44.191 118.305c-.112.076-.177.152-.067.198l-.002.003c.1.036.1-.07.069-.201z"/><path class="fil2" d="m1019.53 1019.54-85.623 92.32s-1.677 1.677-.559 2.794c1.118 1.11 2.787-.558 2.787-.558l92.328-85.63zm-41.618 15.88c-16.323 6.066-21.073 19.623-35.964 24.275-14.9 4.658-19.75 15.907-24.572 20.045-4.831 4.146-9.745 1.724-9.86 3.687-.118 1.975 5.786 3.74 13.24-.72 7.454-4.453 7.31-11.456 25.437-17.306 18.128-5.852 18.648-16.136 35.515-20.668l-3.797-9.313z"/><path class="fil3" d="m1020.88 1020.8-30.293 32.663.53 1.982a39.473 39.473 0 0 0-3.347 1.055l-47.635 51.362 87.065-80.75 2.518 2.707-92.276 85.584.001.001c-.008.008-2.967 2.97-5.399.559h-.007c-2.423-2.424.552-5.406.56-5.415l.001.002 43.752-47.174c-.63.527-1.25 1.06-1.874 1.596-4.616 3.964-9.42 8.09-18.787 11.114-11.51 3.712-15.334 7.886-18.663 11.518-1.89 2.063-3.637 3.969-6.388 5.613-4.118 2.464-7.87 3.192-10.572 3.032-1.146-.069-2.136-.297-2.916-.624h-.009c-.97-.406-1.698-1.007-2.117-1.706v-.008a2.88 2.88 0 0 1-.422-1.666c.148-2.446 1.671-2.549 4.02-2.699 1.657-.106 4.134-.266 6.485-2.284 1.163-.997 2.415-2.567 3.856-4.373 4.215-5.284 9.945-12.461 21.366-16.033 7.063-2.206 11.829-6.634 16.772-11.228 5.206-4.838 10.605-9.854 19.1-13.01l1.287 3.458c-7.79 2.896-12.921 7.663-17.87 12.26-5.257 4.886-10.327 9.596-18.188 12.051-10.34 3.234-15.66 9.898-19.573 14.803-1.558 1.954-2.913 3.65-4.348 4.88a12.902 12.902 0 0 1-2.718 1.809c1.224-.402 2.552-.996 3.95-1.832 2.307-1.378 3.873-3.086 5.564-4.932 3.64-3.971 7.821-8.535 20.255-12.546 8.65-2.792 13.17-6.676 17.513-10.406 3.83-3.289 7.533-6.468 13.588-8.826l32.512-35.055 2.707 2.518zm-86.08 92.394c-.132.024-.226.066-.143.149l-.003.004c.081.076.122-.02.146-.153z"/><path class="fil4" d="M1031.96 1069.06c.84 16.713 10.312 24.113 8.446 39.345 4.093-12.043-5.759-21.382-5.202-39.173zm-14.124-43.85 35.974 78.597-30.14-81.014-5.834 2.416z"/><path class="fil4" d="M1014.1 1068.67c-5.615 15.765.307 26.232-7.247 39.59 8.383-9.564 2.858-21.958 10.186-38.18zm3.74-45.918 3.156 86.379 3.155-86.388-6.31.01z"/><path class="fil4" d="M997.762 1061.49c-11.222 12.412-9.754 24.347-21.841 33.803 11.402-5.635 11.042-19.2 24.012-31.386zm21.03-40.995-30.141 81.017 35.973-78.601-5.831-2.416z"/><path class="fil4" d="M985.412 1048.6c-15.115 7.168-18.333 18.749-33.116 22.86 12.692-.83 17.549-13.502 34.198-19.795zm35.118-29.828-58.851 63.313 63.31-58.859-4.46-4.454z"/><path class="fil2" d="m1021.58 1018.17-114.438 52.521s-2.19.903-1.586 2.364c.606 1.46 2.785.558 2.785.558l118.07-43.78zm-44.529-1.263c-17.405-.639-26.976 10.072-42.517 8.673-15.539-1.397-24.329 7.139-30.377 9.112-6.039 1.985-9.652-2.135-10.517-.36-.858 1.777 3.911 5.67 12.508 4.399 8.592-1.27 11.144-7.789 30.126-6.254 18.983 1.532 23.41-7.772 40.724-5.508l.053-10.062z"/><path class="fil3" d="m1022.35 1019.85-40.49 18.584-.265 2.03a39.6 39.6 0 0 0-3.495-.305l-63.711 29.24 111.383-41.301 1.287 3.472-118.07 43.781-.002-.003c-.437.167-3.901 1.391-5.135-1.583v-.007c-1.304-3.156 2.597-4.776 2.606-4.78l58.483-26.84c-.793.25-1.58.506-2.37.766-5.787 1.897-11.807 3.872-21.607 3.081-12.058-.972-17.192 1.421-21.664 3.505-2.525 1.176-4.861 2.265-8.048 2.736-4.725.697-8.461-.059-10.895-1.235-1.038-.502-1.874-1.095-2.477-1.703-.749-.753-1.2-1.584-1.318-2.387h-.001a2.897 2.897 0 0 1 .251-1.708c1.076-2.213 2.524-1.72 4.752-.963 1.572.534 3.921 1.334 6.857.37 1.464-.477 3.228-1.452 5.255-2.57 5.914-3.263 13.944-7.694 25.853-6.624 7.375.663 13.475-1.605 19.801-3.96 6.667-2.48 13.58-5.052 22.622-4.72l-.13 3.69c-8.318-.305-14.878 2.134-21.204 4.488-6.725 2.503-13.21 4.915-21.408 4.178-10.78-.97-18.251 3.152-23.753 6.189-2.19 1.208-4.095 2.26-5.892 2.846-1.15.378-2.218.57-3.205.631 1.285.097 2.74.056 4.356-.183 2.64-.39 4.746-1.372 7.02-2.432 4.883-2.276 10.49-4.888 23.519-3.837 9.07.732 14.732-1.126 20.172-2.91 4.795-1.574 9.435-3.093 15.94-2.95l43.45-19.943 1.534 3.357zm-114.517 52.558s-.204-.09-.37-.128c-.074.11-.15.175-.196.068h-.002l.002.007-1.708.701-1.708.702m3.612-1.478c-.128-.03-.234-.03-.198.069m-.807-3.371.688 1.715.497 1.24.19.475"/><path class="fil2" d="m1024 1017.68-125.83 4.74s-2.363-.01-2.373 1.578c0 1.578 2.373 1.578 2.373 1.578l125.83 4.73zm-40.66-18.196c-15.828-7.258-28.772-1.029-42.59-8.265-13.826-7.24-25.212-2.715-31.557-3.201-6.346-.479-8.105-5.67-9.58-4.363-1.47 1.317 1.45 6.733 9.877 8.85 8.419 2.12 13.278-2.927 30.224 5.752 16.954 8.68 24.598 1.776 39.723 10.5l3.904-9.273z"/><path class="fil3" d="m1024.07 1019.53-44.525 1.678-1.024 1.783a39.743 39.743 0 0 0-3.124-1.627l-70.055 2.64 118.728 4.467-.13 3.69-125.767-4.732v.006c-.012 0-4.224 0-4.224-3.429 0-3.452 4.212-3.432 4.224-3.432v.006l64.295-2.424c-.817-.072-1.632-.133-2.451-.196-6.063-.46-12.375-.94-21.14-5.427-10.758-5.51-16.422-5.265-21.352-5.053-2.79.122-5.374.234-8.478-.548-4.62-1.16-7.778-3.28-9.584-5.296-.774-.863-1.324-1.735-1.653-2.53-.408-.99-.505-1.93-.307-2.72.144-.577.44-1.08.881-1.473l.009-.007c1.836-1.625 2.985-.62 4.751.935l-.003.003c1.247 1.095 3.11 2.73 6.193 2.961 1.546.118 3.546-.106 5.843-.364 6.715-.753 15.83-1.777 26.431 3.773 6.552 3.432 13.051 3.672 19.794 3.919 7.107.26 14.478.531 22.71 4.305l-1.534 3.357c-7.562-3.467-14.558-3.726-21.306-3.972-7.168-.263-14.08-.519-21.372-4.337-9.593-5.023-18.072-4.07-24.316-3.369-2.485.278-4.648.52-6.524.378a12.875 12.875 0 0 1-3.196-.64c1.147.579 2.504 1.093 4.081 1.49 2.607.655 4.92.554 7.422.446 5.38-.233 11.56-.501 23.189 5.456 8.084 4.139 14.026 4.59 19.735 5.024 5.03.381 9.894.75 15.845 3.37l47.804-1.8.13 3.689zm-126.201 4.476c-.113-.082-.214-.121-.214 0 0 .123.1.083.214 0z"/><path class="fil2" d="m1026.42 1018.17-118.062-43.78s-2.19-.91-2.794.55c-.604 1.46 1.586 2.361 1.586 2.361l114.438 52.531zm-30.594-32.376c-11.86-12.754-26.192-11.953-36.197-23.932-9.996-11.978-22.247-12.16-27.925-15.035-5.67-2.875-5.316-8.346-7.174-7.698-1.868.65-1.245 6.78 5.732 11.963 6.968 5.173 13.385 2.369 25.725 16.874 12.34 14.503 22.037 11.058 32.684 24.902l7.155-7.074z"/><path class="fil3" d="m1025.77 1019.91-41.784-15.494-1.616 1.248a40.112 40.112 0 0 0-2.25-2.682l-65.642-24.34 107.87 49.516-1.533 3.356-114.358-52.494c-.01-.003-3.907-1.62-2.608-4.778v-.008c1.234-2.98 4.705-1.743 5.143-1.573v-.003l60.4 22.397c-.729-.38-1.46-.751-2.194-1.123-5.426-2.746-11.073-5.606-17.453-13.106-7.834-9.208-13.161-11.148-17.8-12.835-2.62-.953-5.043-1.836-7.621-3.75-3.845-2.856-5.953-6.034-6.84-8.59v-.007c-.376-1.083-.545-2.087-.542-2.939.003-1.067.277-1.976.76-2.624a2.877 2.877 0 0 1 1.382-1.028v-.002c2.313-.807 2.99.561 4.029 2.678l.002-.002c.734 1.492 1.831 3.722 4.583 5.118 1.387.7 3.312 1.258 5.526 1.897v.002c6.498 1.872 15.32 4.421 22.979 13.6l.003-.003c4.754 5.69 10.668 8.399 16.802 11.207 6.47 2.96 13.177 6.033 19.337 12.653l-2.708 2.518c-5.671-6.097-12.029-9.008-18.163-11.815-6.53-2.99-12.829-5.873-18.105-12.189v-.007c-6.937-8.316-15.132-10.682-21.165-12.42h-.007c-2.404-.695-4.493-1.298-6.164-2.143a12.862 12.862 0 0 1-2.74-1.847c.844.987 1.91 1.995 3.23 2.976 2.146 1.592 4.326 2.387 6.681 3.245 5.063 1.841 10.875 3.958 19.35 13.919 5.881 6.914 11.2 9.608 16.31 12.194 4.503 2.28 8.86 4.486 13.356 9.18l44.837 16.626-1.287 3.472zm-118.306-44.191c-.076-.112-.152-.177-.198-.067l-.003-.002c-.036.1.07.1.201.069z"/><path class="fil2" d="m1028.46 1019.53-92.319-85.62s-1.678-1.678-2.795-.558c-1.11 1.116.558 2.785.558 2.785l85.63 92.328zm-15.881-41.618c-6.066-16.325-19.623-21.073-24.274-35.965-4.66-14.9-15.908-19.748-20.046-24.57-4.147-4.832-1.723-9.745-3.687-9.86-1.975-.119-3.74 5.785.72 13.24 4.453 7.454 11.457 7.31 17.306 25.436 5.852 18.128 16.136 18.65 20.668 35.515l9.313-3.797z"/><path class="fil3" d="m1027.2 1020.88-32.665-30.294-1.981.529a39.473 39.473 0 0 0-1.055-3.346l-51.355-47.63 80.744 87.062-2.707 2.518-85.585-92.28-.001.002c-.008-.008-2.97-2.966-.56-5.399l.007-.007c2.425-2.422 5.399.552 5.407.56l-.001.001 47.18 43.756c-.528-.63-1.064-1.252-1.601-1.878-3.964-4.615-8.09-9.419-11.113-18.785-3.714-11.51-7.888-15.335-11.52-18.664-2.062-1.89-3.97-3.638-5.613-6.39-2.464-4.117-3.192-7.87-3.031-10.57.068-1.145.296-2.135.624-2.915v-.009c.406-.97 1.007-1.698 1.706-2.117h.007a2.88 2.88 0 0 1 1.667-.422c2.446.144 2.549 1.67 2.699 4.02.105 1.658.267 4.135 2.283 6.484.997 1.163 2.568 2.416 4.373 3.856 5.285 4.215 12.463 9.942 16.035 21.367 2.205 7.06 6.633 11.827 11.227 16.77 4.837 5.206 9.853 10.605 13.01 19.099l-3.458 1.287c-2.895-7.79-7.662-12.92-12.26-17.868-4.886-5.259-9.596-10.328-12.05-18.187-3.234-10.343-9.9-15.661-14.804-19.574-1.954-1.558-3.651-2.912-4.882-4.348a12.912 12.912 0 0 1-1.808-2.717c.401 1.223.996 2.55 1.832 3.948 1.378 2.307 3.087 3.874 4.933 5.565 3.972 3.64 8.535 7.822 12.547 20.256 2.791 8.648 6.675 13.17 10.404 17.512 3.29 3.83 6.47 7.532 8.827 13.587l35.056 32.514-2.518 2.707zm-92.401-86.082c-.025-.128-.068-.218-.144-.15-.083.084.011.127.144.15z"/><path class="fil4" d="M978.942 1031.96c-16.714.836-24.113 10.311-39.346 8.445 12.044 4.092 21.381-5.76 39.172-5.202zm43.852-14.124-78.599 35.974 81.015-30.14-2.416-5.834z"/><path class="fil4" d="M979.329 1014.1c-15.765-5.616-26.232.307-39.59-7.248 9.564 8.383 21.958 2.859 38.182 10.185zm45.917 3.74-86.38 3.156 86.39 3.155-.01-6.31z"/><path class="fil4" d="M986.513 997.762c-12.412-11.222-24.347-9.754-33.803-21.84 5.635 11.4 19.201 11.041 31.386 24.012zm40.995 21.03-81.015-30.143 78.6 35.974 2.415-5.832z"/><path class="fil4" d="M999.402 985.412c-7.167-15.115-18.749-18.333-22.858-33.116.828 12.692 13.501 17.549 19.793 34.198zm29.828 35.118-63.315-58.85 58.86 63.31 4.455-4.46z"/><path class="fil2" d="m1029.83 1021.58-52.521-114.438s-.901-2.19-2.364-1.585c-1.46.605-.557 2.785-.557 2.785l43.78 118.07zm1.263-44.528c.639-17.405-10.07-26.977-8.672-42.518 1.396-15.539-7.14-24.328-9.113-30.376-1.984-6.039 2.135-9.653.361-10.517-1.778-.86-5.67 3.91-4.398 12.509 1.27 8.59 7.787 11.142 6.252 30.124-1.532 18.984 7.772 23.41 5.509 40.724l10.06.054z"/><path class="fil3" d="m1028.15 1022.35-18.584-40.49-2.029-.265c.161-1.229.26-2.388.305-3.494l-29.237-63.705 41.297 111.376-3.472 1.287-43.78-118.07h.003c-.167-.438-1.392-3.902 1.59-5.136 3.159-1.307 4.775 2.596 4.779 2.605l26.844 58.49c-.248-.795-.509-1.584-.769-2.378-1.898-5.785-3.873-11.805-3.082-21.606.973-12.058-1.419-17.192-3.502-21.664-1.177-2.524-2.266-4.86-2.737-8.046-.7-4.726.057-8.46 1.233-10.896.5-1.037 1.095-1.872 1.703-2.477.754-.749 1.585-1.199 2.388-1.32a2.897 2.897 0 0 1 1.708.251c2.214 1.076 1.721 2.524.963 4.752-.534 1.573-1.332 3.922-.369 6.858.477 1.465 1.452 3.228 2.57 5.257 3.264 5.914 7.692 13.942 6.623 25.85-.663 7.375 1.605 13.474 3.959 19.801 2.48 6.666 5.051 13.58 4.72 22.623l-3.69-.13c.305-8.32-2.134-14.88-4.488-21.205-2.502-6.725-4.914-13.21-4.177-21.408.968-10.778-3.152-18.249-6.188-23.75-1.208-2.19-2.259-4.095-2.846-5.894a12.789 12.789 0 0 1-.632-3.213c-.098 1.288-.055 2.746.184 4.364.39 2.639 1.372 4.745 2.432 7.02 2.276 4.882 4.888 10.489 3.835 23.518-.732 9.073 1.126 14.732 2.91 20.172 1.573 4.796 3.095 9.434 2.952 15.942l19.94 43.448-3.356 1.534zm-52.558-114.517s.088-.2.126-.364c-.115-.075-.186-.155-.073-.2l-1.403-3.416m1.476 3.616c.032-.134.032-.244-.073-.2m3.377-.81-1.715.687-1.242.498-.473.189"/><path class="fil2" d="m1030.32 1024-4.74-125.83s.01-2.362-1.578-2.372c-1.578 0-1.578 2.372-1.578 2.372l-4.73 125.83zm18.197-40.66c7.257-15.828 1.028-28.772 8.266-42.59 7.237-13.826 2.713-25.21 3.2-31.557.478-6.346 5.669-8.103 4.363-9.58-1.318-1.47-6.733 1.45-8.852 9.878-2.118 8.418 2.93 13.277-5.75 30.223-8.68 16.954-1.777 24.598-10.5 39.722l9.273 3.903z"/><path class="fil3" d="m1028.47 1024.06-1.677-44.522-1.781-1.023a39.668 39.668 0 0 0 1.625-3.12l-2.64-70.056-4.464 118.722-3.69-.13 4.729-125.764h-.006c0-.012-.002-4.226 3.431-4.226l.007.008c3.44.023 3.423 4.206 3.423 4.218h-.006l2.423 64.3c.072-.817.134-1.633.197-2.454.46-6.064.94-12.377 5.428-21.143 5.51-10.758 5.264-16.423 5.05-21.354-.12-2.79-.232-5.373.549-8.48 1.16-4.617 3.278-7.774 5.295-9.58.864-.774 1.737-1.324 2.532-1.653.99-.407 1.932-.505 2.721-.307.578.144 1.08.44 1.473.881l.007.009c1.625 1.836.62 2.983-.934 4.75-1.096 1.246-2.736 3.111-2.967 6.191-.118 1.548.106 3.544.364 5.842.753 6.714 1.776 15.83-3.774 26.43-3.431 6.554-3.67 13.053-3.918 19.797-.258 7.106-.53 14.476-4.301 22.706l-3.357-1.533c3.465-7.562 3.723-14.556 3.969-21.303.262-7.169.517-14.082 4.335-21.374 5.022-9.593 4.07-18.073 3.37-24.317-.279-2.486-.52-4.646-.378-6.522.091-1.203.321-2.26.637-3.192-.577 1.144-1.09 2.5-1.486 4.073-.654 2.607-.554 4.92-.447 7.424.234 5.38.502 11.563-5.454 23.192-4.139 8.083-4.59 14.028-5.024 19.737-.382 5.03-.752 9.895-3.372 15.848l1.8 47.795-3.689.13zm-4.478-126.204c.077-.111.114-.211.005-.216v.008c-.12 0-.084.098-.005.208z"/><path class="fil2" d="m1029.83 1026.42 43.781-118.061s.91-2.19-.55-2.794c-1.46-.605-2.363 1.585-2.363 1.585l-52.53 114.438zm32.376-30.593c12.754-11.86 11.953-26.192 23.932-36.198 11.978-9.996 12.16-22.246 15.035-27.925 2.875-5.67 8.346-5.316 7.699-7.174-.651-1.868-6.781-1.244-11.962 5.732-5.174 6.968-2.37 13.385-16.876 25.725-14.502 12.34-11.058 22.037-24.902 32.685l7.074 7.155z"/><path class="fil3" d="m1028.09 1025.77 15.494-41.783-1.248-1.615a39.52 39.52 0 0 0 2.682-2.25l24.344-65.65-49.52 107.876-3.356-1.533 52.494-114.357c.003-.01 1.623-3.91 4.778-2.608h.008c2.978 1.234 1.743 4.703 1.574 5.142h.004l-22.397 60.395c.38-.726.75-1.455 1.121-2.19 2.748-5.424 5.607-11.071 13.106-17.452 9.208-7.834 11.148-13.163 12.836-17.8.953-2.62 1.837-5.043 3.75-7.622 2.851-3.838 6.03-5.946 8.59-6.836l-.001-.002c1.082-.376 2.09-.546 2.946-.544 1.067.004 1.974.278 2.625.76.482.357.835.826 1.028 1.383l.002-.001c.806 2.32-.563 2.993-2.677 4.033h-.007c-1.489.731-3.713 1.826-5.111 4.582-.706 1.397-1.26 3.314-1.896 5.52-1.875 6.502-4.425 15.333-13.6 22.99-5.692 4.754-8.399 10.667-11.206 16.8-2.962 6.47-6.032 13.177-12.654 19.336l-2.518-2.707c6.097-5.67 9.008-12.028 11.815-18.162 2.99-6.532 5.873-12.829 12.189-18.105 8.325-6.947 10.689-15.135 12.429-21.166.695-2.412 1.301-4.51 2.14-6.172a12.805 12.805 0 0 1 1.861-2.75c-.99.844-2.002 1.913-2.988 3.24-1.592 2.147-2.387 4.327-3.245 6.682-1.84 5.06-3.957 10.875-13.92 19.35-6.914 5.883-9.606 11.2-12.194 16.309-2.28 4.505-4.486 8.862-9.18 13.358l-16.626 44.836-3.472-1.287zm44.191-118.305c.112-.074.177-.152.067-.198l.002-.003c-.1-.036-.1.07-.069.201z"/><path class="fil2" d="m1028.47 1028.46 85.62-92.319s1.678-1.678.56-2.794c-1.118-1.11-2.787.557-2.787.557l-92.327 85.63zm41.618-15.88c16.323-6.066 21.071-19.623 35.964-24.274 14.9-4.658 19.748-15.908 24.57-20.046 4.833-4.146 9.746-1.723 9.86-3.687.118-1.975-5.785-3.74-13.24.72-7.453 4.453-7.31 11.457-25.436 17.306-18.128 5.852-18.649 16.137-35.515 20.668l3.798 9.313z"/><path class="fil3" d="m1027.12 1027.2 30.294-32.663-.529-1.98a39.547 39.547 0 0 0 3.344-1.055l47.635-51.361-87.063 80.75-2.518-2.708 92.276-85.586-.001-.001c.008-.008 2.967-2.966 5.398-.559h.007c2.428 2.429-.55 5.406-.56 5.414l-43.752 47.173c.627-.525 1.247-1.059 1.87-1.594 4.616-3.963 9.42-8.091 18.789-11.113 11.51-3.714 15.336-7.89 18.665-11.521 1.89-2.063 3.638-3.969 6.388-5.613 4.113-2.463 7.86-3.191 10.563-3.032 1.15.069 2.14.297 2.92.623.981.41 1.712 1.007 2.13 1.707v.008c.31.52.458 1.083.422 1.666-.148 2.446-1.671 2.549-4.02 2.699-1.656.106-4.133.267-6.485 2.284-1.163.997-2.416 2.568-3.856 4.374-4.214 5.284-9.941 12.463-21.365 16.034-7.062 2.206-11.829 6.634-16.772 11.226-5.205 4.839-10.606 9.855-19.1 13.01l-1.288-3.458c7.792-2.894 12.924-7.661 17.87-12.26 5.26-4.885 10.328-9.595 18.19-12.05 10.342-3.233 15.658-9.898 19.571-14.803 1.558-1.954 2.912-3.65 4.348-4.882a12.859 12.859 0 0 1 2.727-1.813c-1.226.402-2.557.999-3.958 1.837-2.305 1.377-3.871 3.086-5.564 4.932-3.64 3.972-7.822 8.536-20.257 12.55-8.65 2.79-13.172 6.673-17.516 10.404-3.828 3.288-7.53 6.469-13.586 8.826l-32.51 35.053-2.707-2.518zm86.08-92.394c.132-.023.226-.066.143-.149l.003-.004c-.082-.078-.124.02-.146.153z"/><path class="fil4" d="M1016.04 978.941c-.837-16.713-10.312-24.112-8.446-39.345-4.093 12.044 5.759 21.38 5.202 39.173zm14.125 43.852-35.975-78.599 30.14 81.014 5.835-2.415z"/><path class="fil4" d="M1033.9 979.329c5.615-15.765-.308-26.232 7.247-39.59-8.382 9.564-2.86 21.958-10.186 38.182zm-3.74 45.917-3.156-86.38-3.155 86.39 6.31-.01z"/><path class="fil4" d="M1050.24 986.513c11.222-12.412 9.754-24.346 21.841-33.803-11.401 5.635-11.042 19.201-24.012 31.386zm-21.03 40.995 30.143-81.015-35.975 78.6 5.831 2.415z"/><path class="fil4" d="M1062.59 999.402c15.115-7.167 18.332-18.749 33.115-22.858-12.691.828-17.55 13.501-34.198 19.793zm-35.118 29.825 58.851-63.31-63.31 58.859 4.46 4.451z"/><path class="fil2" d="m1026.42 1029.83 114.437-52.521s2.19-.901 1.586-2.363c-.605-1.46-2.785-.558-2.785-.558l-118.07 43.78zm44.528 1.263c17.405.639 26.976-10.07 42.517-8.672 15.539 1.396 24.328-7.14 30.376-9.115 6.04-1.982 9.653 2.137 10.517.363.86-1.778-3.91-5.67-12.508-4.4-8.59 1.27-11.143 7.787-30.125 6.254-18.984-1.532-23.41 7.772-40.724 5.509l-.053 10.06z"/><path class="fil3" d="m1025.65 1028.15 40.49-18.582.264-2.03c1.228.16 2.39.258 3.495.304l63.7-29.235-111.37 41.295-1.288-3.472 118.07-43.78v.003c.438-.167 3.902-1.392 5.136 1.59 1.304 3.157-2.597 4.775-2.606 4.779l-58.489 26.843c.795-.25 1.583-.508 2.377-.768 5.785-1.898 11.805-3.873 21.606-3.083 12.056.975 17.19-1.418 21.662-3.502 2.527-1.176 4.864-2.266 8.05-2.736 4.728-.698 8.465.059 10.9 1.235 1.035.501 1.868 1.094 2.473 1.701.749.757 1.199 1.591 1.318 2.394a2.886 2.886 0 0 1-.251 1.702c-1.076 2.212-2.524 1.72-4.75.964-1.573-.535-3.922-1.334-6.86-.369-1.464.478-3.23 1.452-5.259 2.57-5.914 3.264-13.941 7.69-25.848 6.622-7.375-.663-13.474 1.605-19.801 3.959-6.667 2.48-13.578 5.051-22.622 4.72l.13-3.69c8.32.304 14.878-2.135 21.204-4.488 6.725-2.502 13.21-4.914 21.408-4.177 10.777.967 18.248-3.151 23.748-6.186 2.191-1.209 4.097-2.26 5.896-2.847 1.155-.38 2.226-.57 3.215-.632-1.287-.098-2.746-.055-4.365.183-2.639.389-4.746 1.372-7.022 2.432-4.883 2.276-10.49 4.889-23.517 3.835-9.073-.732-14.732 1.126-20.172 2.91-4.796 1.572-9.435 3.095-15.941 2.952l-43.448 19.94-1.534-3.356zm114.516-52.558s.2.088.365.128c.076-.116.155-.186.2-.074l3.416-1.403m-3.616 1.477c.133.032.244.032.2-.074m.81 3.376-.688-1.715-.497-1.241-.19-.474"/><path class="fil2" d="m1024 1030.32 125.83-4.74c0-.001 2.363.006 2.373-1.579 0-1.578-2.373-1.578-2.373-1.578l-125.83-4.73zm40.66 18.196c15.827 7.258 28.772 1.03 42.59 8.267 13.827 7.237 25.212 2.713 31.557 3.2 6.346.478 8.105 5.67 9.58 4.363 1.471-1.318-1.45-6.733-9.877-8.85-8.417-2.12-13.278 2.927-30.224-5.752-16.952-8.68-24.598-1.776-39.722-10.5l-3.903 9.272z"/><path class="fil3" d="m1023.94 1028.47 44.525-1.677 1.023-1.78c1.075.62 2.11 1.157 3.117 1.624l70.072-2.641-118.737-4.463.13-3.69 125.765 4.728v-.006c.012 0 4.225 0 4.225 3.432 0 3.449-4.212 3.43-4.223 3.43v-.006l-64.31 2.424c.822.073 1.64.134 2.465.197 6.063.46 12.376.939 21.14 5.425 10.761 5.512 16.421 5.266 21.352 5.053 2.791-.12 5.374-.233 8.48.549 4.626 1.16 7.785 3.283 9.588 5.3h.007c.761.855 1.31 1.725 1.64 2.528.407.988.505 1.929.306 2.717h-.001a2.885 2.885 0 0 1-.88 1.473l-.008.007c-1.834 1.624-2.983.62-4.75-.933l.004-.004c-1.246-1.095-3.11-2.728-6.195-2.96-1.546-.118-3.545.105-5.844.363-6.714.753-15.828 1.776-26.43-3.774-6.552-3.43-13.05-3.67-19.794-3.918-7.106-.26-14.475-.531-22.706-4.305l1.533-3.356c7.562 3.466 14.556 3.725 21.303 3.972 7.169.262 14.08.517 21.371 4.336 9.593 5.022 18.072 4.07 24.317 3.37 2.486-.278 4.65-.52 6.524-.378 1.207.09 2.266.323 3.2.64-1.147-.578-2.504-1.094-4.082-1.49-2.607-.655-4.922-.555-7.424-.448-5.38.234-11.56.502-23.19-5.456-8.082-4.137-14.027-4.589-19.735-5.021-5.033-.382-9.898-.751-15.852-3.373l-47.796 1.8-.13-3.689zm126.2-4.473c.113.083.214.123.214 0 0-.121-.1-.081-.214 0z"/><path class="fil2" d="m1021.58 1029.83 118.061 43.78s2.189.912 2.794-.55c.604-1.46-1.586-2.361-1.586-2.361l-114.437-52.531zm30.593 32.376c11.86 12.754 26.192 11.954 36.197 23.932 9.997 11.978 22.246 12.16 27.925 15.035 5.67 2.875 5.316 8.347 7.174 7.699 1.867-.651 1.245-6.78-5.732-11.962-6.968-5.174-13.385-2.37-25.725-16.875-12.338-14.504-22.037-11.06-32.684-24.906l-7.155 7.077z"/><path class="fil3" d="m1022.23 1028.09 41.784 15.494 1.614-1.246c.753.979 1.502 1.867 2.248 2.678l65.645 24.343-107.87-49.517 1.534-3.356 114.357 52.494c.01.003 3.91 1.623 2.608 4.778v.008c-1.237 2.98-4.706 1.743-5.143 1.573l-.001.003-60.404-22.398c.73.381 1.46.751 2.198 1.124 5.427 2.746 11.074 5.606 17.454 13.107 7.834 9.207 13.161 11.147 17.798 12.835 2.621.953 5.046 1.838 7.623 3.75 3.845 2.856 5.953 6.034 6.84 8.59v.007c.375 1.083.544 2.087.542 2.939-.004 1.068-.278 1.976-.76 2.624a2.877 2.877 0 0 1-1.383 1.028l.002.002c-2.314.807-2.991-.56-4.03-2.677h-.003c-.733-1.491-1.83-3.722-4.582-5.118-1.395-.705-3.313-1.26-5.517-1.895-6.503-1.875-15.335-4.425-22.993-13.601-4.754-5.69-10.666-8.398-16.8-11.205-6.469-2.961-13.176-6.033-19.336-12.655l2.707-2.518c5.671 6.097 12.031 9.01 18.162 11.816 6.533 2.99 12.828 5.874 18.104 12.188 6.949 8.327 15.138 10.69 21.17 12.43 2.411.695 4.509 1.3 6.168 2.14a12.847 12.847 0 0 1 2.734 1.844c-.843-.985-1.906-1.993-3.224-2.972-2.147-1.593-4.326-2.387-6.683-3.245-5.06-1.842-10.873-3.959-19.347-13.919-5.882-6.915-11.2-9.61-16.311-12.195-4.505-2.28-8.862-4.487-13.359-9.18l-44.833-16.626 1.287-3.472zm118.305 44.191c.076.112.152.177.198.067l.003.002c.036-.1-.07-.1-.201-.069z"/><path class="fil2" d="m1019.54 1028.47 92.319 85.623s1.677 1.677 2.794.559c1.11-1.118-.559-2.787-.559-2.787l-85.628-92.328zm15.88 41.618c6.066 16.325 19.623 21.073 24.274 35.963 4.66 14.902 15.908 19.75 20.046 24.573 4.146 4.831 1.723 9.745 3.687 9.86 1.976.118 3.74-5.784-.72-13.24-4.453-7.455-11.457-7.31-17.306-25.436-5.851-18.129-16.136-18.65-20.668-35.514l-9.313 3.795z"/><path class="fil3" d="m1020.8 1027.12 32.662 30.293 1.983-.53a39.639 39.639 0 0 0 1.055 3.348l51.36 47.633-80.75-87.063 2.706-2.518 85.587 92.276.001-.001c.008.008 2.968 2.971.559 5.399l-.007.007c-2.425 2.42-5.4-.552-5.408-.56l.002-.001-47.176-43.755c.527.629 1.06 1.25 1.597 1.875 3.964 4.616 8.092 9.42 11.113 18.79 3.713 11.507 7.887 15.332 11.52 18.66 2.061 1.89 3.971 3.64 5.614 6.393 2.462 4.111 3.19 7.859 3.03 10.561-.068 1.147-.296 2.138-.623 2.92-.41.981-1.007 1.712-1.708 2.13a2.878 2.878 0 0 1-1.672.422c-2.447-.144-2.55-1.668-2.7-4.02-.106-1.657-.267-4.134-2.282-6.483-.997-1.163-2.567-2.415-4.372-3.856-5.285-4.215-12.466-9.943-16.037-21.367-2.206-7.063-6.633-11.83-11.227-16.773-4.838-5.206-9.854-10.606-13.01-19.1l3.459-1.288c2.894 7.792 7.661 12.923 12.258 17.87 4.886 5.26 9.597 10.329 12.051 18.19 3.234 10.343 9.9 15.662 14.806 19.575 1.953 1.556 3.65 2.912 4.88 4.346a12.87 12.87 0 0 1 1.814 2.73c-.402-1.227-.997-2.558-1.837-3.96-1.378-2.31-3.089-3.877-4.935-5.568-3.972-3.64-8.535-7.823-12.547-20.254-2.79-8.65-6.673-13.171-10.404-17.516-3.29-3.828-6.469-7.531-8.825-13.586l-35.055-32.512 2.518-2.707zm92.4 86.082c.024.127.067.216.143.15.083-.085-.01-.127-.143-.15z"/><path class="fil4" d="M1069.06 1016.04c16.713-.84 24.112-10.312 39.345-8.446-12.043-4.093-21.38 5.76-39.173 5.202zm-43.85 14.124 78.597-35.974-81.014 30.14 2.416 5.834z"/><path class="fil4" d="M1068.67 1033.9c15.765 5.615 26.232-.307 39.59 7.247-9.564-8.383-21.958-2.858-38.182-10.186zm-45.917-3.74 86.38-3.156-86.39-3.155.01 6.31z"/><path class="fil4" d="M1061.49 1050.24c12.411 11.22 24.346 9.754 33.802 21.84-5.635-11.401-19.201-11.041-31.387-24.012zm-40.995-21.03 81.017 30.142-78.601-35.974-2.416 5.831z"/><path class="fil4" d="M1048.6 1062.59c7.168 15.115 18.749 18.334 22.858 33.116-.828-12.691-13.501-17.549-19.793-34.198zm-29.824-35.118 63.31 58.851-58.86-63.31-4.45 4.46z"/><path class="fil2" d="M1075.28 1024c0 28.32-22.96 51.28-51.28 51.28s-51.28-22.96-51.28-51.28 22.96-51.279 51.28-51.279c28.32-.001 51.28 22.96 51.28 51.279z"/><path class="fil5" d="M1041.48 1013.03c-3.497 0-6.853 1.524-8.825 4.677 3.948 3.552 12.654 3.933 18.577-.403-2.56-2.76-6.245-4.274-9.752-4.274zm-.054.813c3.406-.065 6.597 1.504 7.04 3.055-3.948 4.344-10.25 3.966-14.198.81 1.732-2.758 4.507-3.822 7.158-3.865z"/><path class="fil4" d="M1042.14 1010.6c-5.119 0-6.31 1.19-8.679 3.157-2.362 1.973-3.544 1.576-3.939 1.973-.397.396 0 1.579.782 1.182.795-.398 2.372-1.182 4.733-3.155 2.373-1.975 4.733-1.975 7.103-1.975 7.103 0 11.041 5.924 11.835 5.527.785-.397-3.948-6.708-11.835-6.709z"/><path class="fil4" d="M1056.34 1012.96c-9.069-7.887-20.508-9.069-26.825-3.155-1.542 2.073-2.534 4.282-2.94 6.588-.792 4.498.614 9.348 4.13 14.323-.399 0-1.19.388-1.578.785-3.138-5.987-4.246-12.142-3.218-17.992a26.09 26.09 0 0 1 1.234-4.488c8.681-7.103 20.516-7.897 29.197 3.94z"/><path class="fil4" d="M1044.9 1016.9a3.543 3.543 0 0 1-3.544 3.542 3.546 3.546 0 1 1 0-7.094 3.544 3.544 0 0 1 3.544 3.552z"/><path class="fil4" d="M1051.62 1019.28c-6.706 5.13-13.414 4.733-17.362 2.363-3.94-2.363-3.94-3.157-3.155-3.157.786 0 1.578.794 4.733 2.372 3.154 1.576 7.887 1.577 15.784-1.578zM1016.16 1031.08c-1.688.317-2.885 1.812-2.885 3.526 0 1.954 1.613 3.515 3.568 3.515 1.162 0 2.226-.55 2.884-1.496 1.37 1.027 3.264 1.135 4.273 1.154h.46c1.01-.019 2.903-.127 4.273-1.154a3.494 3.494 0 0 0 2.884 1.496c1.955 0 3.579-1.56 3.579-3.515 0-1.714-1.2-3.21-2.884-3.526.946.334 1.548 1.253 1.548 2.255a2.357 2.357 0 0 1-2.361 2.36 2.375 2.375 0 0 1-2.36-2.243c-.387.766-1.913 3.055-4.904 3.173-3.002-.118-4.525-2.407-4.903-3.173-.083 1.253-1.11 2.243-2.372 2.243a2.357 2.357 0 0 1-2.36-2.36c0-1.002.612-1.911 1.56-2.255zM1020.01 1041.59c-3.945 0-5.506 3.57-9.057 5.94 1.973-.784 3.524-2.342 6.281-3.92 2.769-1.58 5.12.341 6.698.341l.054-.001c1.579 0 3.93-1.92 6.695-.34 2.762 1.578 4.374 3.136 6.346 3.92-3.55-2.37-5.173-5.94-9.12-5.94-.786 0-2.342.425-3.921 1.207h-.054c-1.577-.782-3.138-1.207-3.922-1.207z"/><path class="fil4" d="M1018.68 1046.26c-1.558.074-3.614.38-6.57 1.272 7.103-1.576 8.663.803 11.826.803h.053c3.155 0 4.723-2.379 11.826-.803-7.887-2.37-9.455-.81-11.826-.81h-.053c-1.488 0-2.66-.577-5.256-.462z"/><path class="fil4" d="M1012.46 1047.48c-.46.01-.956.01-1.495.053 8.28.794 4.298 5.545 12.979 5.545h.053c8.681 0 4.752-4.751 13.032-5.545-8.668-.784-5.93 4.327-13.032 4.327h-.053c-6.662 0-4.615-4.46-11.484-4.38zM1031.1 1060.29a7.09 7.09 0 0 0-7.094-7.096 7.098 7.098 0 0 0-7.102 7.096 7.307 7.307 0 0 1 7.102-5.608 7.29 7.29 0 0 1 7.094 5.608zM992.12 1012.96c9.076-7.887 20.504-9.069 26.824-3.155 1.541 2.073 2.532 4.282 2.937 6.588.795 4.498-.603 9.348-4.128 14.323.398 0 1.191.388 1.587.785 3.128-5.987 4.236-12.142 3.209-17.992a26.09 26.09 0 0 0-1.235-4.488c-8.68-7.103-20.515-7.897-29.194 3.94z"/><path class="fil4" d="M1006.32 1010.6c5.13 0 6.308 1.19 8.681 3.157 2.37 1.973 3.552 1.576 3.938 1.973.398.396 0 1.579-.784 1.182-.785-.398-2.37-1.182-4.732-3.155-2.37-1.975-4.734-1.975-7.103-1.975-7.093 0-11.041 5.924-11.826 5.527-.794-.397 3.939-6.708 11.826-6.709z"/><path class="fil5" d="M1006.07 1013.03c-3.496 0-6.848 1.524-8.824 4.677 3.948 3.552 12.657 3.933 18.578-.403-2.568-2.76-6.247-4.274-9.754-4.274zm-.053.813c3.409-.065 6.59 1.504 7.04 3.055-3.948 4.344-10.25 3.966-14.198.81 1.73-2.758 4.509-3.822 7.158-3.865z"/><path class="fil4" d="M1010.08 1016.9a3.543 3.543 0 0 1-3.542 3.542 3.543 3.543 0 0 1-3.552-3.542 3.546 3.546 0 1 1 7.094 0z"/><path class="fil4" d="M996.841 1019.28c6.707 5.13 13.414 4.733 17.362 2.363 3.94-2.363 3.94-3.157 3.154-3.157-.783 0-1.576.794-4.733 2.372-3.153 1.576-7.886 1.577-15.783-1.578z"/></g><path style="fill:none" d="M0 0h2048v2048H0z"/></svg>