<svg id="Layer_1" data-name="Layer 1" xmlns="http://www.w3.org/2000/svg" viewBox="0 0 48 48"><defs><style>.cls-2{fill:#ffb600}</style></defs><path d="M45 12.5a10 10 0 0 0-19.51-3.07A14.93 14.93 0 0 0 7 24v3.09a1.51 1.51 0 0 0-1 1.41v7A1.5 1.5 0 0 0 7.5 37H10a2 2 0 0 0 4 0V27a2 2 0 0 0-3-1.72V24a11 11 0 0 1 14.05-10.56 10 10 0 0 0 7.8 8.82A11.57 11.57 0 0 1 33 24v1.28A2 2 0 0 0 30 27v10a2 2 0 0 0 2 2v1.5a1.5 1.5 0 0 1-1.5 1.5h-3a.5.5 0 0 0 0 1h3a2.5 2.5 0 0 0 2.5-2.5v-1.78A2 2 0 0 0 34 37h2.5a1.5 1.5 0 0 0 1.5-1.5v-7a1.51 1.51 0 0 0-1-1.41V24a14.74 14.74 0 0 0-.12-1.68A10 10 0 0 0 45 12.5zM33 37a1 1 0 0 1-2 0V27a1 1 0 0 1 2 0zm-23-1H7.5a.5.5 0 0 1-.5-.5v-7a.5.5 0 0 1 .5-.5H10zm2-10a1 1 0 0 1 1 1v10a1 1 0 0 1-2 0V27a1 1 0 0 1 1-1zm-2-2v3H8v-3a13.92 13.92 0 0 1 17.23-13.6 9.33 9.33 0 0 0-.22 2A12.31 12.31 0 0 0 22 12a12 12 0 0 0-12 12zm27 11.5a.5.5 0 0 1-.5.5H34v-8h2.5a.5.5 0 0 1 .5.5zM36 24v3h-2v-3a12.12 12.12 0 0 0-.12-1.57 10.36 10.36 0 0 0 1.12.07 8.69 8.69 0 0 0 .89-.05A12.54 12.54 0 0 1 36 24zm-1-2.5a9 9 0 1 1 9-9 9 9 0 0 1-9 9z" style="fill:#2d3142"/><path class="cls-2" d="M25.5 40h-2a2.5 2.5 0 0 0 0 5h2a2.5 2.5 0 0 0 0-5zM39.5 8a.5.5 0 0 0-.5.5V12h-2.86L37 8.62a.5.5 0 0 0-1-.24l-1 4a.51.51 0 0 0 .1.43.49.49 0 0 0 .39.19H39v3.5a.5.5 0 0 0 1 0v-8a.5.5 0 0 0-.5-.5zM33.5 16h-3.07l2.91-4.35a2.42 2.42 0 0 0 .12-2.45 2.2 2.2 0 0 0-2-1.2A2.5 2.5 0 0 0 29 10.5a.5.5 0 0 0 1 0A1.5 1.5 0 0 1 31.52 9a1.19 1.19 0 0 1 1.05.67 1.37 1.37 0 0 1-.07 1.42l-3.42 5.13a.5.5 0 0 0 .42.78h4a.5.5 0 0 0 0-1z"/></svg>
