<svg xmlns="http://www.w3.org/2000/svg" xml:space="preserve" width="2048" height="2048" style="shape-rendering:geometricPrecision;text-rendering:geometricPrecision;image-rendering:optimizeQuality;fill-rule:evenodd;clip-rule:evenodd"><defs><style>.fil1{fill:#fcc901}</style></defs><g id="Layer_x0020_1"><path style="fill:#039" d="M255.999 562.5h1536v923h-1536z"/><path class="fil1" d="m903.337 794.998 28.583-19.872h-34.814l-10.128-32.544-11.107 32.544H840.96l28.126 19.8-10.497 30.73 27.41-18.76 26.766 18.955zM1052.11 789.722l-9.42-30.847 28.57-19.879h-34.8l-10.13-32.543-11.11 32.543h-34.916l28.126 19.798-10.491 30.733 27.401-18.754zM1186.69 825.851l-9.42-30.853 28.59-19.872h-34.83l-10.12-32.544-11.1 32.544h-34.92l28.13 19.8-10.5 30.73 27.4-18.76zM1277.3 893.852l28.59-19.875h-34.8l-10.15-32.54-11.1 32.54h-34.91l28.12 19.8-10.48 30.73 27.39-18.76 26.78 18.954zM1324.84 1065.24l-9.43-30.85 28.59-19.88h-34.8l-10.15-32.538-11.1 32.538h-34.89l28.1 19.8-10.47 30.73 27.39-18.76zM1287.93 1202.2l-9.43-30.85 28.58-19.87h-34.8l-10.14-32.55-11.11 32.55h-34.9l28.11 19.81-10.48 30.72 27.39-18.76zM1179.64 1273.78l28.59-19.87h-34.81l-10.13-32.55-11.11 32.55h-34.9l28.12 19.79-10.49 30.74 27.4-18.76 26.77 18.95zM1042.69 1310.7l28.57-19.87h-34.8l-10.13-32.55-11.11 32.55h-34.916l28.126 19.8-10.491 30.72 27.401-18.76 26.77 18.96zM902.144 1273.78l28.585-19.87h-34.815l-10.128-32.55-11.106 32.55h-34.906l28.122 19.79-10.499 30.74 27.411-18.76 26.766 18.95zM804.479 1171.35l28.59-19.87h-34.816l-10.126-32.55-11.106 32.55h-34.913l28.128 19.81-10.5 30.72 27.407-18.76 26.771 18.95zM775.804 1065.24l-9.435-30.85 28.589-19.88h-34.813l-10.129-32.538-11.106 32.538h-34.912l28.123 19.8-10.493 30.73 27.404-18.76zM815.104 924.701l-9.427-30.849 28.578-19.875h-34.809l-10.128-32.54-11.107 32.54h-34.912l28.122 19.8-10.492 30.73 27.404-18.76z"/></g><path style="fill:none" d="M0 0h2048v2048H0z"/></svg>
