<svg version="1.1" id="Layer_1" xmlns="http://www.w3.org/2000/svg" x="0" y="0" viewBox="0 0 64 64" style="enable-background:new 0 0 64 64" xml:space="preserve"><style>.st1,.st11,.st2,.st3{fill:#81d4fa;stroke:#0277bd;stroke-linecap:round;stroke-linejoin:round;stroke-miterlimit:10}.st11,.st2,.st3{fill:#ec407a}.st11,.st3{fill:#ffa726}.st11{fill:#eee}</style><path class="st3" d="M49.2 60.5h-28c-.6 0-1-.4-1-1v-17h30v17c0 .6-.4 1-1 1z"/><path d="M22.2 58.5h26" style="fill:none;stroke:#f57c00;stroke-linecap:round;stroke-linejoin:round;stroke-miterlimit:10"/><path class="st3" d="M23.2 52.5h6v4h-6zM19.2 34.5v7c0 .6.4 1 1 1h30c.6 0 1-.4 1-1v-7c0-.6-.4-1-1-1h-30c-.5 0-1 .4-1 1z"/><path class="st1" d="M51.5 21.5h-33c-.6 0-1-.4-1-1v-10c0-.6.4-1 1-1h33c.6 0 1 .4 1 1v10c0 .6-.5 1-1 1z"/><path d="M19.5 11.5h31m0 0" style="fill:none;stroke:#e1f5fe;stroke-linecap:round;stroke-linejoin:round;stroke-miterlimit:10"/><path d="M50.5 19.5h-31m31-8" style="fill:none;stroke:#29b6f6;stroke-linecap:round;stroke-linejoin:round;stroke-miterlimit:10"/><path class="st11" d="m53.9 20.8 8.8-4.4c.7-.4.7-1.4 0-1.8l-8.8-4.4c-.7-.3-1.4.2-1.4.9v8.8c0 .7.8 1.2 1.4.9z"/><path class="st2" d="M18.1 3.5H7.6c-.8 0-1.3 1-.8 1.6l2.7 3.3c.6.7 1.4 1.1 2.3 1.1h10.5c.8 0 1.3-1 .8-1.6l-2.7-3.3c-.6-.7-1.4-1.1-2.3-1.1zM18.1 27.5H7.6c-.8 0-1.3-1-.8-1.6l2.7-3.3c.6-.7 1.4-1.1 2.3-1.1h10.5c.8 0 1.3 1 .8 1.6l-2.7 3.3c-.6.7-1.4 1.1-2.3 1.1z"/><path class="st1" d="M.7 44.5h15M3.7 49.5h12M17.5 18.5h-3c-.6 0-1-.4-1-1v-4c0-.6.4-1 1-1h3v6z"/><path class="st3" d="m9.2 18.2-6.9-1.7c-1-.3-1-1.7 0-1.9l6.9-1.7c.6-.2 1.2.3 1.2 1v3.4c.1.6-.5 1-1.2.9z"/><path d="M21.2 35.5h28" style="fill:none;stroke:#ffcc80;stroke-linecap:round;stroke-linejoin:round;stroke-miterlimit:10"/><path class="st11" d="M33.2 9.5h4v51h-4z"/></svg>
