<svg xmlns="http://www.w3.org/2000/svg" viewBox="0 0 512 512" style="enable-background:new 0 0 512 512" xml:space="preserve"><circle style="fill:#00c3ff" cx="256" cy="256" r="247.409"/><path style="fill:#00aaf0" d="M365.96 457.593c-136.64 0-247.409-110.77-247.409-247.409 0-81.458 39.378-153.705 100.125-198.787C99.746 29.394 8.591 132.048 8.591 256c0 136.64 110.77 247.409 247.409 247.409 55.183 0 106.133-18.083 147.284-48.623a249.075 249.075 0 0 1-37.324 2.807z"/><path d="M437.02 74.98C388.668 26.629 324.38 0 256 0S123.332 26.629 74.98 74.98C26.629 123.332 0 187.62 0 256s26.629 132.668 74.98 181.02C123.332 485.371 187.62 512 256 512s132.668-26.629 181.02-74.98C485.371 388.668 512 324.38 512 256s-26.629-132.668-74.98-181.02zm19.97 309.879h-27.171c16.626-36.282 25.975-77.372 27.078-120.268h37.752c-1.571 44.17-15.179 85.327-37.659 120.268zm-241.026 69.102a8.591 8.591 0 0 0-15.564 7.278c5.564 11.9 11.275 21.126 16.934 28.248-43.074-12.026-80.589-43.709-106.69-87.447h69.948a400.457 400.457 0 0 0 5.714 21.392 8.594 8.594 0 0 0 8.229 6.136 8.59 8.59 0 0 0 8.235-11.05 376.686 376.686 0 0 1-4.496-16.478h115.463c-2.298 9.178-4.822 17.934-7.573 26.188-13.9 41.698-32.652 66.591-50.166 66.591-13.494 0-27.714-14.51-40.034-40.858zM17.352 264.591h37.752c1.103 42.897 10.451 83.986 27.078 120.268H55.01c-22.48-34.941-36.088-76.098-37.658-120.268zm37.658-137.45h27.172c-16.626 36.282-25.975 77.372-27.078 120.268H17.352c1.57-44.17 15.178-85.327 37.658-120.268zm241.049-69.052a8.592 8.592 0 0 0 15.566-7.274c-5.572-11.926-11.293-21.17-16.96-28.302 43.076 12.026 80.59 43.708 106.69 87.447h-69.948a399.44 399.44 0 0 0-5.702-21.351c-1.356-4.546-6.143-7.135-10.688-5.776a8.591 8.591 0 0 0-5.776 10.688 376.074 376.074 0 0 1 4.484 16.439H198.261c2.298-9.178 4.822-17.934 7.573-26.188 13.9-41.698 32.652-66.591 50.166-66.591 13.507 0 27.733 14.529 40.059 40.908zm-113.883 189.32c.493-43.212 4.697-84.412 12.157-120.268h123.304c7.461 35.964 11.688 77.352 12.187 120.268H182.176zm147.648 17.182c-.493 43.213-4.697 84.412-12.157 120.268H194.363c-7.461-35.963-11.688-77.35-12.187-120.268h147.648zM217.487 22.47c-10.522 13.195-19.993 31.993-27.952 55.869-3.3 9.901-6.287 20.482-8.956 31.621h-69.933c26.13-43.789 63.702-75.497 106.841-87.49zm-40.685 104.671c-7.252 36.191-11.327 77.319-11.808 120.268H72.293c1.208-44.171 11.683-85.328 28.988-120.268h75.521zM72.293 264.591h92.702c.487 42.676 4.587 83.978 11.84 120.268h-75.554c-17.305-34.941-27.78-76.098-28.988-120.268zm222.22 224.939c10.522-13.195 19.993-31.993 27.952-55.869 3.3-9.901 6.287-20.482 8.956-31.621h69.934c-26.131 43.789-63.703 75.497-106.842 87.49zm40.686-104.671c7.252-36.191 11.327-77.319 11.808-120.268h46.442a8.591 8.591 0 0 0 0-17.182h-46.442c-.487-42.674-4.587-83.977-11.84-120.268h75.554c17.305 34.941 27.78 76.098 28.988 120.268h-9.602a8.591 8.591 0 0 0 0 17.182h9.602c-1.208 44.171-11.683 85.328-28.988 120.268h-75.522zm121.697-137.45c-1.103-42.897-10.451-83.986-27.078-120.268h27.171c22.48 34.941 36.087 76.098 37.658 120.268h-37.751zM444.825 109.96h-23.61c-6.604-12.078-14.071-23.515-22.365-34.178-7.916-10.178-16.392-19.39-25.327-27.618 27.67 15.708 51.91 36.78 71.302 61.796zM138.479 48.164c-8.937 8.229-17.411 17.44-25.327 27.618-8.295 10.663-15.761 22.1-22.366 34.178h-23.61c19.391-25.016 43.631-46.088 71.303-61.796zM67.175 402.04h23.61c6.604 12.078 14.071 23.515 22.365 34.178 7.916 10.178 16.392 19.39 25.327 27.618-27.67-15.708-51.91-36.78-71.302-61.796zm306.346 61.796c8.937-8.229 17.411-17.44 25.327-27.618 8.294-10.664 15.76-22.101 22.365-34.178h23.61c-19.39 25.016-43.63 46.088-71.302 61.796z"/></svg>
