<svg xmlns="http://www.w3.org/2000/svg" xml:space="preserve" width="2048" height="2048" style="shape-rendering:geometricPrecision;text-rendering:geometricPrecision;image-rendering:optimizeQuality;fill-rule:evenodd;clip-rule:evenodd"><defs><style>.fil1{fill:#fafafa}</style></defs><g id="Layer_x0020_1"><path style="fill:#e30a17" d="M255.999 562.5h1536v923h-1536z"/><path class="fil1" d="M605.104 1022.45c0-100.534 79.657-182.033 177.923-182.033 60.859 0 114.554 31.28 146.638 78.96-37.462-73.222-112.947-123.296-200.021-123.296-124.362 0-225.174 102.044-225.174 227.927 0 125.875 100.812 227.916 225.174 227.916 91.95 0 170.979-55.82 205.95-135.79-31.12 52.933-87.796 88.354-152.567 88.354-98.265 0-177.923-81.496-177.923-182.038z"/><path class="fil1" d="m1120 1089.55-49.03-66.94 48.59-67.338-78.9 25.959-49.046-66.939.279 82.984-78.9 25.954 79.076 25.33.279 82.99 48.592-67.33z"/></g><path style="fill:none" d="M0 0h2048v2048H0z"/></svg>
